<?xml version="1.0" encoding="iso-8859-1"?>
<!-- Generator: Adobe Illustrator 19.0.0, SVG Export Plug-In . SVG Version: 6.00 Build 0)  -->
<svg version="1.1" id="Capa_1" xmlns="http://www.w3.org/2000/svg" xmlns:xlink="http://www.w3.org/1999/xlink" x="0px" y="0px"
	 viewBox="0 0 512 512" style="enable-background:new 0 0 512 512;" xml:space="preserve">
<rect x="128" y="191.992" style="fill:#B0BEC5;" width="256" height="256"/>
<rect x="128" y="191.992" style="fill:#90A4AE;" width="256" height="64"/>
<path style="fill:#ECEFF1;" d="M503.52,129.88l-240-128c-4.704-2.496-10.336-2.496-15.072,0l-240,128
	C3.264,132.664,0,138.072,0,143.992v32c0,8.832,7.168,16,16,16h480c8.832,0,16-7.168,16-16v-32
	C512,138.072,508.736,132.664,503.52,129.88z"/>
<path style="fill:#CFD8DC;" d="M480,447.992H32c-17.632,0-32,14.336-32,32v16c0,8.832,7.168,16,16,16h480c8.832,0,16-7.168,16-16
	v-16C512,462.328,497.664,447.992,480,447.992z"/>
<path style="fill:#009688;" d="M256,303.992c-8.832,0-16-7.168-16-16s7.168-16,16-16h32c8.832,0,16-7.168,16-16s-7.168-16-16-16h-16
	v-16c0-8.832-7.168-16-16-16s-16,7.168-16,16v18.944c-18.592,6.624-32,24.224-32,45.056c0,26.464,21.536,48,48,48
	c8.832,0,16,7.2,16,16s-7.168,16-16,16h-32c-8.832,0-16,7.168-16,16s7.168,16,16,16h16v16c0,8.832,7.168,16,16,16s16-7.168,16-16
	v-18.944c18.592-6.624,32-24.224,32-45.056C304,325.528,282.464,303.992,256,303.992z"/>
<g>
	<rect x="64" y="191.992" style="fill:#CFD8DC;" width="64" height="256"/>
	<rect x="384" y="191.992" style="fill:#CFD8DC;" width="64" height="256"/>
</g>
<circle style="fill:#90A4AE;" cx="256" cy="95.992" r="32"/>
<g>
</g>
<g>
</g>
<g>
</g>
<g>
</g>
<g>
</g>
<g>
</g>
<g>
</g>
<g>
</g>
<g>
</g>
<g>
</g>
<g>
</g>
<g>
</g>
<g>
</g>
<g>
</g>
<g>
</g>
</svg>
