<svg height="507pt" viewBox="0 -2 507.62976 507" width="507pt" xmlns="http://www.w3.org/2000/svg"><g fill="#4c8056"><path d="m43.390625 468.925781c-2.300781 0-4.507813-.914062-6.132813-2.542969l-26.035156-26.035156c-3.289062-3.402344-3.242187-8.816406.105469-12.164062s8.761719-3.394532 12.164063-.105469l26.035156 26.035156c2.480468 2.480469 3.222656 6.210938 1.878906 9.453125-1.339844 3.242188-4.503906 5.359375-8.015625 5.359375zm0 0"/><path d="m78.105469 468.925781c-3.511719 0-6.675781-2.117187-8.015625-5.359375-1.34375-3.242187-.601563-6.972656 1.878906-9.453125l12.410156-12.410156c3.40625-3.289063 8.816406-3.242187 12.164063.105469 3.347656 3.347656 3.394531 8.757812.105469 12.164062l-12.410157 12.410156c-1.625 1.628907-3.832031 2.542969-6.132812 2.542969zm0 0"/><path d="m78.105469 503.636719h-34.714844c-4.792969 0-8.675781-3.886719-8.675781-8.675781v-34.714844c0-4.792969 3.882812-8.675782 8.675781-8.675782h34.714844c4.792969 0 8.675781 3.882813 8.675781 8.675782v34.714844c0 4.789062-3.882812 8.675781-8.675781 8.675781zm0 0"/></g><path d="m135.207031 356.980469c6.246094-43.128907 44.253907-16.75 44.253907-16.75-3.273438 9.683593-8.875 18.414062-16.3125 25.425781l-23.8125 11.023438zm0 0" fill="#24ae5f"/><path d="m256.003906 269.332031h147.523438v52.066407h-147.523438zm0 0" fill="#547580"/><path d="m282.035156 269.332031h34.714844v52.066407h-34.714844zm0 0" fill="#9bc8c2"/><path d="m459.585938 251.976562h-40.4375c-4.792969 0-8.679688-3.886718-8.679688-8.679687s3.886719-8.675781 8.679688-8.675781h40.4375c9.144531.195312 16.960937-6.546875 18.105468-15.621094l12.484375-121.492188c.550781-4.742187-.984375-9.492187-4.207031-13.015624-3.554688-3.910157-8.601562-6.117188-13.886719-6.074219h-38.179687c-4.792969 0-8.679688-3.886719-8.679688-8.679688s3.886719-8.675781 8.679688-8.675781h38.179687c10.191407-.027344 19.917969 4.273438 26.757813 11.828125 6.480468 7.183594 9.605468 16.78125 8.605468 26.40625l-12.496093 121.492187c-2.039063 17.929688-17.316407 31.40625-35.363281 31.1875zm0 0" fill="#547580"/><path d="m60.75 468.925781c-4.792969 0-8.679688-3.886719-8.679688-8.679687v-43.390625c0-4.789063 3.886719-8.675781 8.679688-8.675781 4.789062 0 8.675781 3.886718 8.675781 8.675781v43.390625c0 4.792968-3.886719 8.679687-8.675781 8.679687zm0 0" fill="#4c8056"/><path d="m238.386719 220.5625c-10.28125.105469-19.578125-6.089844-23.429688-15.621094l-54.414062-135.203125h65.085937zm0 0" fill="#90bae1"/><path d="m206.886719 391.863281 9.195312-50.679687c3.050781-16.484375 17.425781-28.453125 34.191407-28.460938h150.304687c16.765625.007813 31.140625 11.976563 34.191406 28.460938l23.167969 127.65625 4.46875 24.566406c.460938 2.53125-.226562 5.140625-1.875 7.117188-1.652344 1.976562-4.097656 3.117187-6.671875 3.113281h-256.867187c-2.574219 0-5.015626-1.140625-6.664063-3.117188-1.648437-1.976562-2.335937-4.582031-1.875-7.113281zm0 0" fill="#c03a2b"/><path d="m462.40625 493.40625c.460938 2.53125-.226562 5.140625-1.875 7.117188-1.652344 1.976562-4.097656 3.117187-6.671875 3.113281h-256.867187c-2.574219 0-5.019532-1.140625-6.667969-3.121094-1.648438-1.976563-2.335938-4.585937-1.871094-7.117187l4.460937-24.472657h264.765626l.257812-.085937zm0 0" fill="#802f34"/><path d="m368.816406 390.824219c0 23.960937-19.425781 43.390625-43.390625 43.390625-23.964843 0-43.390625-19.429688-43.390625-43.390625 0-23.964844 19.425782-43.390625 43.390625-43.390625 23.964844 0 43.390625 19.425781 43.390625 43.390625zm0 0" fill="#2c3e50"/><path d="m362.238281 436.320312c-2.300781 0-4.507812-.914062-6.136719-2.539062l-73.621093-73.644531c-3.289063-3.402344-3.242188-8.816407.105469-12.164063 3.347656-3.347656 8.757812-3.394531 12.164062-.105468l73.625 73.640624c2.480469 2.484376 3.222656 6.214844 1.878906 9.457032-1.34375 3.242187-4.507812 5.355468-8.015625 5.355468zm0 0" fill="#35495e"/><path d="m212.613281 69.738281 15.621094 184.058594c.953125 13.628906 12.285156 24.199219 25.945313 24.214844h151.171874c13.660157-.015625 24.988282-10.585938 25.945313-24.214844l1.648437-19.175781 11.023438-130.171875 2.949219-34.710938" fill="#b0d3f0"/><path d="m446.917969 26.347656v43.390625h-286.375l40.726562-33.9375c5.925781-5.183593 10.460938-11.757812 13.199219-19.136719 3.949219-9.890624 13.53125-16.367187 24.179688-16.347656h182.234374c14.378907 0 26.035157 11.652344 26.035157 26.03125zm0 0" fill="#c03a2b"/><path d="m386.171875 43.703125h-112.8125c-4.792969 0-8.679687-3.882813-8.679687-8.675781 0-4.792969 3.886718-8.679688 8.679687-8.679688h112.8125c4.792969 0 8.679687 3.886719 8.679687 8.679688 0 4.792968-3.886718 8.675781-8.679687 8.675781zm0 0" fill="#e64c3c"/><path d="m282.035156 251.976562h-17.355468c-4.792969 0-8.675782-3.886718-8.675782-8.679687s3.882813-8.675781 8.675782-8.675781h17.355468c4.792969 0 8.679688 3.882812 8.679688 8.675781s-3.886719 8.679687-8.679688 8.679687zm0 0" fill="#90bae1"/><path d="m394.851562 251.976562h-78.101562c-4.792969 0-8.679688-3.886718-8.679688-8.679687s3.886719-8.675781 8.679688-8.675781h78.101562c4.792969 0 8.675782 3.882812 8.675782 8.675781s-3.882813 8.679687-8.675782 8.679687zm0 0" fill="#90bae1"/><path d="m100.40625 388.566406c-2.90625-1.359375-6.074219-2.070312-9.285156-2.082031-1.457032.011719-2.910156.15625-4.339844.433594v-.433594c0-14.378906-11.65625-26.035156-26.03125-26.035156-14.378906 0-26.035156 11.65625-26.035156 26.035156v.433594c-1.429688-.277344-2.882813-.421875-4.339844-.433594-11.980469 0-21.695312 9.714844-21.695312 21.695313.019531 2.082031.3125 4.152343.867187 6.160156-7.628906 3.84375-11.324219 12.667968-8.714844 20.804687 2.609375 8.132813 10.753907 13.15625 19.195313 11.84375 8.4375-1.3125 14.671875-8.570312 14.6875-17.113281v-.433594c4.605468-.921875 8.78125-3.332031 11.886718-6.855468 3.257813 4.578124 8.527344 7.296874 14.148438 7.296874 5.617188 0 10.886719-2.71875 14.144531-7.296874 3.105469 3.523437 7.28125 5.933593 11.886719 6.855468v.433594" fill="#24ae5f"/><path d="m221.289062 434.214844c.039063 30.34375-19.660156 57.191406-48.617187 66.257812-28.960937 9.070313-60.453125-1.742187-77.734375-26.6875-8.164062-11.578125-12.53125-25.40625-12.496094-39.570312 0-38.34375 31.082032-69.425782 69.425782-69.425782 38.285156.132813 69.289062 31.136719 69.421874 69.425782zm0 0" fill="#e57e25"/><path d="m203.933594 416.855469c0 38.34375-31.082032 69.425781-69.421875 69.425781-14.167969.039062-27.996094-4.328125-39.574219-12.496094-8.164062-11.578125-12.53125-25.40625-12.496094-39.570312 0-38.34375 31.082032-69.425782 69.425782-69.425782 14.167968-.039062 27.996093 4.328126 39.570312 12.496094 8.167969 11.578125 12.535156 25.40625 12.496094 39.570313zm0 0" fill="#f29c1f"/><path d="m143.1875 399.5c-4.792969 0-8.675781-3.882812-8.675781-8.675781-1.171875-20.398438-9.488281-39.734375-23.492188-54.609375-3.289062-3.40625-3.242187-8.820313.105469-12.167969s8.761719-3.394531 12.164062-.105469c17.265626 18.128906 27.410157 41.875 28.578126 66.882813 0 4.792969-3.886719 8.675781-8.679688 8.675781zm0 0" fill="#804537"/></svg>