<?xml version="1.0" encoding="iso-8859-1"?>
<!-- Generator: Adobe Illustrator 19.0.0, SVG Export Plug-In . SVG Version: 6.00 Build 0)  -->
<svg version="1.1" id="Layer_1" xmlns="http://www.w3.org/2000/svg" xmlns:xlink="http://www.w3.org/1999/xlink" x="0px" y="0px"
	 viewBox="0 0 512 512" style="enable-background:new 0 0 512 512;" xml:space="preserve">
<path style="fill:#88888F;" d="M209.978,51.775c-4.766,0-8.629-3.862-8.629-8.629V8.629c0-4.767,3.864-8.629,8.629-8.629
	s8.629,3.862,8.629,8.629v34.517C218.607,47.913,214.743,51.775,209.978,51.775z"/>
<rect x="129.438" y="89.169" style="fill:#DBDBDB;" width="161.079" height="207.101"/>
<g>
	<rect x="256" y="89.169" style="fill:#CCCCCE;" width="46.022" height="207.101"/>
	<rect x="163.955" y="43.146" style="fill:#CCCCCE;" width="92.045" height="46.022"/>
</g>
<g>
	<path style="fill:#D1E5F5;" d="M244.494,143.82h-69.034c-4.766,0-8.629-3.862-8.629-8.629c0-4.767,3.864-8.629,8.629-8.629h69.034
		c4.766,0,8.629,3.862,8.629,8.629C253.124,139.958,249.26,143.82,244.494,143.82z"/>
	<path style="fill:#D1E5F5;" d="M244.494,189.843h-34.517c-4.766,0-8.629-3.862-8.629-8.629s3.864-8.629,8.629-8.629h34.517
		c4.766,0,8.629,3.862,8.629,8.629S249.26,189.843,244.494,189.843z"/>
	<path style="fill:#D1E5F5;" d="M244.494,235.865h-34.517c-4.766,0-8.629-3.862-8.629-8.629s3.864-8.629,8.629-8.629h34.517
		c4.766,0,8.629,3.862,8.629,8.629S249.26,235.865,244.494,235.865z"/>
</g>
<rect x="290.517" y="43.146" style="fill:#ACAAB0;" width="161.079" height="460.225"/>
<g>
	<path style="fill:#B4D8F1;" d="M336.539,109.303c-4.766,0-8.629-3.862-8.629-8.629V89.169c0-4.767,3.864-8.629,8.629-8.629
		s8.629,3.862,8.629,8.629v11.506C345.169,105.441,341.305,109.303,336.539,109.303z"/>
	<path style="fill:#B4D8F1;" d="M371.056,109.303c-4.766,0-8.629-3.862-8.629-8.629V89.169c0-4.767,3.864-8.629,8.629-8.629
		s8.629,3.862,8.629,8.629v11.506C379.685,105.441,375.822,109.303,371.056,109.303z"/>
	<path style="fill:#B4D8F1;" d="M405.573,109.303c-4.766,0-8.629-3.862-8.629-8.629V89.169c0-4.767,3.864-8.629,8.629-8.629
		s8.629,3.862,8.629,8.629v11.506C414.202,105.441,410.339,109.303,405.573,109.303z"/>
	<path style="fill:#B4D8F1;" d="M336.539,166.831c-4.766,0-8.629-3.862-8.629-8.629v-11.506c0-4.767,3.864-8.629,8.629-8.629
		s8.629,3.862,8.629,8.629v11.506C345.169,162.969,341.305,166.831,336.539,166.831z"/>
	<path style="fill:#B4D8F1;" d="M371.056,166.831c-4.766,0-8.629-3.862-8.629-8.629v-11.506c0-4.767,3.864-8.629,8.629-8.629
		s8.629,3.862,8.629,8.629v11.506C379.685,162.969,375.822,166.831,371.056,166.831z"/>
	<path style="fill:#B4D8F1;" d="M405.573,166.831c-4.766,0-8.629-3.862-8.629-8.629v-11.506c0-4.767,3.864-8.629,8.629-8.629
		s8.629,3.862,8.629,8.629v11.506C414.202,162.969,410.339,166.831,405.573,166.831z"/>
	<path style="fill:#B4D8F1;" d="M336.539,224.36c-4.766,0-8.629-3.862-8.629-8.629v-11.506c0-4.767,3.864-8.629,8.629-8.629
		s8.629,3.862,8.629,8.629v11.506C345.169,220.497,341.305,224.36,336.539,224.36z"/>
	<path style="fill:#B4D8F1;" d="M371.056,224.36c-4.766,0-8.629-3.862-8.629-8.629v-11.506c0-4.767,3.864-8.629,8.629-8.629
		s8.629,3.862,8.629,8.629v11.506C379.685,220.497,375.822,224.36,371.056,224.36z"/>
	<path style="fill:#B4D8F1;" d="M405.573,224.36c-4.766,0-8.629-3.862-8.629-8.629v-11.506c0-4.767,3.864-8.629,8.629-8.629
		s8.629,3.862,8.629,8.629v11.506C414.202,220.497,410.339,224.36,405.573,224.36z"/>
	<path style="fill:#B4D8F1;" d="M336.539,281.888c-4.766,0-8.629-3.862-8.629-8.629v-11.506c0-4.767,3.864-8.629,8.629-8.629
		s8.629,3.862,8.629,8.629v11.506C345.169,278.025,341.305,281.888,336.539,281.888z"/>
	<path style="fill:#B4D8F1;" d="M371.056,281.888c-4.766,0-8.629-3.862-8.629-8.629v-11.506c0-4.767,3.864-8.629,8.629-8.629
		s8.629,3.862,8.629,8.629v11.506C379.685,278.025,375.822,281.888,371.056,281.888z"/>
	<path style="fill:#B4D8F1;" d="M371.056,339.416c-4.766,0-8.629-3.862-8.629-8.629v-11.506c0-4.767,3.864-8.629,8.629-8.629
		s8.629,3.862,8.629,8.629v11.506C379.685,335.553,375.822,339.416,371.056,339.416z"/>
	<path style="fill:#B4D8F1;" d="M371.056,396.944c-4.766,0-8.629-3.862-8.629-8.629v-11.506c0-4.767,3.864-8.629,8.629-8.629
		s8.629,3.862,8.629,8.629v11.506C379.685,393.081,375.822,396.944,371.056,396.944z"/>
	<path style="fill:#B4D8F1;" d="M371.056,454.472c-4.766,0-8.629-3.862-8.629-8.629v-11.506c0-4.767,3.864-8.629,8.629-8.629
		s8.629,3.862,8.629,8.629v11.506C379.685,450.609,375.822,454.472,371.056,454.472z"/>
	<path style="fill:#B4D8F1;" d="M405.573,281.888c-4.766,0-8.629-3.862-8.629-8.629v-11.506c0-4.767,3.864-8.629,8.629-8.629
		s8.629,3.862,8.629,8.629v11.506C414.202,278.025,410.339,281.888,405.573,281.888z"/>
	<path style="fill:#B4D8F1;" d="M405.573,339.416c-4.766,0-8.629-3.862-8.629-8.629v-11.506c0-4.767,3.864-8.629,8.629-8.629
		s8.629,3.862,8.629,8.629v11.506C414.202,335.553,410.339,339.416,405.573,339.416z"/>
	<path style="fill:#B4D8F1;" d="M405.573,396.944c-4.766,0-8.629-3.862-8.629-8.629v-11.506c0-4.767,3.864-8.629,8.629-8.629
		s8.629,3.862,8.629,8.629v11.506C414.202,393.081,410.339,396.944,405.573,396.944z"/>
	<path style="fill:#B4D8F1;" d="M405.573,454.472c-4.766,0-8.629-3.862-8.629-8.629v-11.506c0-4.767,3.864-8.629,8.629-8.629
		s8.629,3.862,8.629,8.629v11.506C414.202,450.609,410.339,454.472,405.573,454.472z"/>
</g>
<rect x="48.899" y="169.708" style="fill:#F8F8F9;" width="161.079" height="333.663"/>
<g>
	<path style="fill:#D1E5F5;" d="M94.921,247.371c-4.766,0-8.629-3.862-8.629-8.629v-11.506c0-4.767,3.864-8.629,8.629-8.629
		s8.629,3.862,8.629,8.629v11.506C103.551,243.508,99.687,247.371,94.921,247.371z"/>
	<path style="fill:#D1E5F5;" d="M129.438,247.371c-4.766,0-8.629-3.862-8.629-8.629v-11.506c0-4.767,3.864-8.629,8.629-8.629
		s8.629,3.862,8.629,8.629v11.506C138.067,243.508,134.204,247.371,129.438,247.371z"/>
	<path style="fill:#D1E5F5;" d="M163.955,247.371c-4.766,0-8.629-3.862-8.629-8.629v-11.506c0-4.767,3.864-8.629,8.629-8.629
		s8.629,3.862,8.629,8.629v11.506C172.584,243.508,168.721,247.371,163.955,247.371z"/>
	<path style="fill:#D1E5F5;" d="M94.921,304.899c-4.766,0-8.629-3.862-8.629-8.629v-11.506c0-4.767,3.864-8.629,8.629-8.629
		s8.629,3.862,8.629,8.629v11.506C103.551,301.036,99.687,304.899,94.921,304.899z"/>
	<path style="fill:#D1E5F5;" d="M129.438,304.899c-4.766,0-8.629-3.862-8.629-8.629v-11.506c0-4.767,3.864-8.629,8.629-8.629
		s8.629,3.862,8.629,8.629v11.506C138.067,301.036,134.204,304.899,129.438,304.899z"/>
	<path style="fill:#D1E5F5;" d="M163.955,304.899c-4.766,0-8.629-3.862-8.629-8.629v-11.506c0-4.767,3.864-8.629,8.629-8.629
		s8.629,3.862,8.629,8.629v11.506C172.584,301.036,168.721,304.899,163.955,304.899z"/>
	<path style="fill:#D1E5F5;" d="M94.921,362.427c-4.766,0-8.629-3.862-8.629-8.629v-11.506c0-4.767,3.864-8.629,8.629-8.629
		s8.629,3.862,8.629,8.629v11.506C103.551,358.565,99.687,362.427,94.921,362.427z"/>
	<path style="fill:#D1E5F5;" d="M129.438,362.427c-4.766,0-8.629-3.862-8.629-8.629v-11.506c0-4.767,3.864-8.629,8.629-8.629
		s8.629,3.862,8.629,8.629v11.506C138.067,358.565,134.204,362.427,129.438,362.427z"/>
	<path style="fill:#D1E5F5;" d="M163.955,362.427c-4.766,0-8.629-3.862-8.629-8.629v-11.506c0-4.767,3.864-8.629,8.629-8.629
		s8.629,3.862,8.629,8.629v11.506C172.584,358.565,168.721,362.427,163.955,362.427z"/>
	<path style="fill:#D1E5F5;" d="M94.921,419.955c-4.766,0-8.629-3.862-8.629-8.629V399.82c0-4.767,3.864-8.629,8.629-8.629
		s8.629,3.862,8.629,8.629v11.506C103.551,416.093,99.687,419.955,94.921,419.955z"/>
	<path style="fill:#D1E5F5;" d="M129.438,419.955c-4.766,0-8.629-3.862-8.629-8.629V399.82c0-4.767,3.864-8.629,8.629-8.629
		s8.629,3.862,8.629,8.629v11.506C138.067,416.093,134.204,419.955,129.438,419.955z"/>
	<path style="fill:#D1E5F5;" d="M163.955,419.955c-4.766,0-8.629-3.862-8.629-8.629V399.82c0-4.767,3.864-8.629,8.629-8.629
		s8.629,3.862,8.629,8.629v11.506C172.584,416.093,168.721,419.955,163.955,419.955z"/>
</g>
<rect x="209.978" y="273.258" style="fill:#EDEDED;" width="161.079" height="230.112"/>
<rect x="256" y="273.258" style="fill:#DBDBDB;" width="115.056" height="230.112"/>
<path style="fill:#D1E5F5;" d="M256,477.485c-4.766,0-8.629-3.864-8.629-8.629V307.778c0-4.767,3.864-8.629,8.629-8.629
	s8.629,3.862,8.629,8.629v161.079C264.629,473.623,260.766,477.485,256,477.485z"/>
<g>
	<path style="fill:#B4D8F1;" d="M290.517,477.485c-4.766,0-8.629-3.864-8.629-8.629V307.778c0-4.767,3.864-8.629,8.629-8.629
		s8.629,3.862,8.629,8.629v161.079C299.146,473.623,295.282,477.485,290.517,477.485z"/>
	<path style="fill:#B4D8F1;" d="M325.034,477.485c-4.766,0-8.629-3.864-8.629-8.629V307.778c0-4.767,3.864-8.629,8.629-8.629
		s8.629,3.862,8.629,8.629v161.079C333.663,473.623,329.799,477.485,325.034,477.485z"/>
	<path style="fill:#B4D8F1;" d="M256,299.148v178.337c4.766,0,8.629-3.864,8.629-8.629V307.778
		C264.629,303.011,260.766,299.148,256,299.148z"/>
</g>
<rect x="106.427" y="457.348" style="fill:#D1E5F5;" width="46.022" height="46.022"/>
<g>
	<path style="fill:#88888F;" d="M129.438,512c-4.766,0-8.629-3.862-8.629-8.629V480.36c0-4.767,3.864-8.629,8.629-8.629
		c4.767,0,8.629,3.862,8.629,8.629v23.011C138.067,508.138,134.205,512,129.438,512z"/>
	<path style="fill:#88888F;" d="M486.112,512H25.888c-4.766,0-8.629-3.862-8.629-8.629s3.864-8.629,8.629-8.629h460.225
		c4.766,0,8.629,3.862,8.629,8.629S490.878,512,486.112,512z"/>
</g>
<path style="fill:#797781;" d="M486.112,494.742H256V512h230.112c4.766,0,8.629-3.862,8.629-8.629S490.878,494.742,486.112,494.742z
	"/>
<g>
</g>
<g>
</g>
<g>
</g>
<g>
</g>
<g>
</g>
<g>
</g>
<g>
</g>
<g>
</g>
<g>
</g>
<g>
</g>
<g>
</g>
<g>
</g>
<g>
</g>
<g>
</g>
<g>
</g>
</svg>
