<?xml version="1.0" encoding="iso-8859-1"?>
<!-- Generator: Adobe Illustrator 16.0.0, SVG Export Plug-In . SVG Version: 6.00 Build 0)  -->
<!DOCTYPE svg PUBLIC "-//W3C//DTD SVG 1.1//EN" "http://www.w3.org/Graphics/SVG/1.1/DTD/svg11.dtd">
<svg version="1.1" id="Capa_1" xmlns="http://www.w3.org/2000/svg" xmlns:xlink="http://www.w3.org/1999/xlink" x="0px" y="0px"
	 width="127.936px" height="127.936px" viewBox="0 0 127.936 127.936" style="enable-background:new 0 0 127.936 127.936;"
	 xml:space="preserve">
<g>
	<g>
		<path d="M83.108,49.043h7.901c4.044-2.839,6.392-6.124,6.392-9.63V19.929c0-10.761-21.801-19.483-48.697-19.483
			c-26.896,0-48.699,8.722-48.699,19.483v19.483c0,10.77,21.803,19.485,48.699,19.485c5.939,0,11.605-0.446,16.866-1.226
			C69.679,52.456,75.974,49.043,83.108,49.043z M48.697,34.542c-26.754,0-43.827-8.646-43.827-14.607
			c0-5.951,17.073-14.607,43.827-14.607c26.755,0,43.834,8.656,43.834,14.607C92.531,25.896,75.458,34.542,48.697,34.542z"/>
		<path d="M48.697,88.118c4.149,0,8.154-0.229,11.998-0.612V71.461c0-1.187,0.172-2.33,0.348-3.475
			c-3.951,0.416-8.069,0.656-12.346,0.656C21.798,68.643,0,59.924,0,49.161v19.482C0,79.401,21.803,88.118,48.697,88.118z"/>
		<path d="M60.695,97.246c-3.844,0.383-7.845,0.612-11.998,0.612C21.798,97.858,0,89.142,0,78.377v19.48
			c0,10.765,21.803,19.481,48.697,19.481c4.474,0,8.781-0.264,12.9-0.712c-0.527-1.904-0.902-3.868-0.902-5.948V97.246z"/>
		<path d="M111.124,54.646H83.108c-9.248,0-16.809,7.568-16.809,16.811v39.223c0,9.243,7.561,16.811,16.809,16.811h28.016
			c9.249,0,16.812-7.567,16.812-16.811V71.457C127.936,62.214,120.373,54.646,111.124,54.646z M111.124,95.27H97.116v7.004
			L83.108,91.068l14.008-11.206v7.004h14.008V95.27z"/>
	</g>
</g>
<g>
</g>
<g>
</g>
<g>
</g>
<g>
</g>
<g>
</g>
<g>
</g>
<g>
</g>
<g>
</g>
<g>
</g>
<g>
</g>
<g>
</g>
<g>
</g>
<g>
</g>
<g>
</g>
<g>
</g>
</svg>
