<svg height="496pt" viewBox="-71 0 496 496" width="496pt" xmlns="http://www.w3.org/2000/svg"><path d="m88 416v32h-40c-22.078125 0-40-17.921875-40-40v-64c0-22.078125 17.921875-40 40-40h40v32h-32c-8.800781 0-16 7.199219-16 16v48c0 8.800781 7.199219 16 16 16zm0 0" fill="#e6e9ed"/><path d="m136 56c0 6.238281 1.839844 12.160156 4.960938 17.039062h-.082032c-6.878906 18.082032-24.398437 30.960938-44.878906 30.960938h-32c0-26.480469 21.519531-48 48-48zm0 0" fill="#b4dd7f"/><path d="m140.878906 39.039062c-3.117187 4.960938-4.878906 10.722657-4.878906 16.960938h-24c-26.480469 0-48-21.519531-48-48h32c20.558594 0 38.078125 12.878906 44.878906 31.039062zm0 0" fill="#b4dd7f"/><path d="m168 24c17.679688 0 32 14.320312 32 32 0 6.398438-1.921875 12.398438-5.121094 17.359375-4.320312 6.71875-11.117187 11.679687-19.117187 13.679687-2.480469.640626-5.121094.960938-7.761719.960938-11.441406 0-21.441406-6-27.039062-14.960938-3.121094-4.878906-4.960938-10.800781-4.960938-17.039062s1.761719-12 4.878906-16.960938c5.679688-9.039062 15.679688-15.039062 27.121094-15.039062zm0 0" fill="#ff826e"/><path d="m344 32-51.441406 115.601562-3.597656-4.5625c-4.320313-4.320312-10.320313-7.039062-16.960938-7.039062h-9.121094c9.441406 0 17.121094-7.679688 17.121094-17.121094 0-5.839844-2.878906-11.039062-7.441406-14.078125l39.519531-88.722656zm0 0" fill="#b4dd7f"/><path d="m288.960938 143.039062 3.597656 4.5625c2.160156 3.597657 3.441406 7.839844 3.441406 12.398438 0 13.28125-10.71875 24-24 24h40c8.800781 0 16 7.199219 16 16 0 4.398438-1.761719 8.398438-4.71875 11.28125-2.882812 2.957031-6.882812 4.71875-11.28125 4.71875h-184c-13.28125 0-24-10.71875-24-24 0-6.640625 2.71875-12.640625 7.039062-16.960938 4.320313-4.320312 10.320313-7.039062 16.960938-7.039062h24c-8.800781 0-16-7.199219-16-16 0-4.398438 1.761719-8.398438 4.71875-11.28125 2.882812-2.957031 6.882812-4.71875 11.28125-4.71875h21.121094c-5.839844 0-11.121094-2.398438-14.960938-6.160156-3.761718-3.839844-6.160156-9.121094-6.160156-14.960938 0-6.800781 3.28125-13.199218 8.878906-17.199218l14.882813-10.640626c8-2 14.796875-6.960937 19.117187-13.679687l13.121094-9.359375h8c4.800781 19.359375 20.878906 33.839844 40.640625 36.640625l8.640625 1.28125c2.71875.398437 5.199219 1.359375 7.277344 2.878906 4.5625 3.039063 7.441406 8.238281 7.441406 14.078125 0 9.441406-7.679688 17.121094-17.121094 17.121094h9.121094c6.640625 0 12.640625 2.71875 16.960938 7.039062zm0 0" fill="#ffeaa7"/><path d="m344 224v16c0 4.398438-3.601562 8-8 8h-240c-4.398438 0-8-3.601562-8-8v-16c0-4.398438 3.601562-8 8-8h240c4.398438 0 8 3.601562 8 8zm0 0" fill="#e6e9ed"/><path d="m344 296v160c0 17.679688-14.320312 32-32 32h-192c-17.679688 0-32-14.320312-32-32v-160c0-10.398438 3.359375-20.480469 9.601562-28.800781l14.398438-19.199219h208l14.398438 19.199219c6.242187 8.320312 9.601562 18.402343 9.601562 28.800781zm0 0" fill="#ffeaa7"/><path d="m292.800781 344-92.800781 92.800781c13.199219 13.199219 30.640625 19.597657 48 19.121094 16.238281-.320313 32.398438-6.722656 44.800781-19.121094 12.398438-12.402343 18.800781-28.5625 19.121094-44.800781.476563-17.359375-5.921875-34.800781-19.121094-48zm0 0" fill="#ff826e"/><path d="m139.199219 280c-13.199219 13.199219-19.597657 30.640625-19.121094 48 .320313 16.238281 6.722656 32.398438 19.121094 44.800781 12.402343 12.398438 28.5625 18.800781 44.800781 19.121094 17.359375.476563 34.800781-5.921875 48-19.121094zm0 0" fill="#ff826e"/><path d="m194.34375 442.441406c14.34375 14.351563 33.199219 21.527344 52.046875 21.527344s37.707031-7.175781 52.050781-21.527344c28.695313-28.699218 28.695313-75.402344 0-104.097656l-5.65625-5.65625-104.097656 104.097656zm72.96875-42.441406h35.648438c-1.496094 8.886719-5.023438 17.433594-10.695313 24.953125zm13.640625 36.265625c-7.519531 5.664063-16.066406 9.199219-24.953125 10.695313v-35.640626zm22.664063-52.265625h-39.511719l28.292969-28.296875c6.371093 8.441406 10.105468 18.25 11.21875 28.296875zm-63.617188 24.105469v39.511719c-10.046875-1.113282-19.855469-4.847657-28.296875-11.226563zm0 0"/><path d="m336 208h-1.472656c.898437-2.511719 1.472656-5.183594 1.472656-8 0-13.230469-10.769531-24-24-24h-12.449219c2.753907-4.726562 4.449219-10.144531 4.449219-16 0-4.480469-.945312-8.742188-2.617188-12.617188l53.03125-119.085937-46.207031-23.152344-39.773437 89.320313c-.671875-.152344-1.320313-.386719-2.019532-.480469l-8.628906-1.230469c-16.601562-2.378906-29.960937-14.417968-34.023437-30.691406l-1.515625-6.0625h-14.246094c0-19.3125-13.769531-35.472656-32-39.191406v-16.808594h-16v16.808594c-6.542969 1.335937-12.390625 4.398437-17.351562 8.511718-10.234376-15.449218-27.671876-25.320312-46.648438-25.320312h-40v8c0 20.382812 10.984375 38.199219 27.304688 48-16.320313 9.800781-27.304688 27.617188-27.304688 48v8h40c18.976562 0 36.414062-9.871094 46.648438-25.320312 3.351562 2.777343 7.085937 5.039062 11.222656 6.617187-6.136719 5.488281-9.871094 13.253906-9.871094 21.574219 0 4.929687 1.34375 9.503906 3.519531 13.585937-11.09375 2.101563-19.519531 11.847657-19.519531 23.542969 0 2.816406.574219 5.488281 1.472656 8h-1.472656c-17.648438 0-32 14.351562-32 32 0 5.855469 1.695312 11.273438 4.449219 16h-4.449219c-8.824219 0-16 7.175781-16 16v16c0 8.824219 7.175781 16 16 16l-4.800781 6.398438c-7.222657 9.625-11.199219 21.5625-11.199219 33.601562h-32c-26.472656 0-48 21.527344-48 48v64c0 26.472656 21.527344 48 48 48h32c0 22.054688 17.945312 40 40 40h192c22.054688 0 40-17.945312 40-40v-160c0-12.039062-3.976562-23.976562-11.199219-33.601562l-4.800781-6.398438c8.824219 0 16-7.175781 16-16v-16c0-8.824219-7.175781-16-16-16zm-288 232c-17.648438 0-32-14.351562-32-32v-64c0-17.648438 14.351562-32 32-32h32v16h-24c-13.230469 0-24 10.769531-24 24v48c0 13.230469 10.769531 24 24 24h24v16zm32-96v64h-24c-4.40625 0-8-3.59375-8-8v-48c0-4.40625 3.59375-8 8-8zm236.015625-317.046875 17.570313 8.800781-43.570313 97.832032c-1.609375-1.105469-3.335937-2.042969-5.144531-2.832032 1.929687-3.5625 3.128906-7.570312 3.128906-11.890625 0-6-2.199219-11.566406-5.816406-15.941406zm-243.207031-10.953125h23.191406c15.414062 0 29.433594 9.097656 36.015625 22.847656-1.382813 2.894532-2.550781 5.921875-3.207031 9.152344h-16.808594c-19.320312 0-35.480469-13.769531-39.191406-32zm23.191406 80h-23.191406c3.710937-18.230469 19.878906-32 39.191406-32h16.808594c.65625 3.230469 1.816406 6.257812 3.207031 9.152344-6.574219 13.75-20.601563 22.847656-36.015625 22.847656zm48-40c0-10.414062 6.710938-19.214844 16-22.527344v14.527344h16v-14.527344c9.289062 3.3125 16 12.113282 16 22.527344 0 13.230469-10.769531 24-24 24s-24-10.769531-24-24zm-32 136c0-8.824219 7.175781-16 16-16h72v-16h-48c-4.40625 0-8-3.59375-8-8s3.59375-8 8-8h48v-16h-26.871094c-7.242187 0-13.128906-5.886719-13.128906-13.128906 0-4.230469 2.054688-8.222656 5.496094-10.679688l14.183594-10.128906c8.441406-2.597656 15.695312-7.796875 20.746093-14.804688l9.789063-6.992187c7.273437 19.367187 24.449218 33.34375 45.3125 36.328125l8.632812 1.230469c4.464844.632812 7.839844 4.519531 7.839844 9.039062 0 5.039063-4.097656 9.136719-9.136719 9.136719h-30.863281v16h40c8.824219 0 16 7.175781 16 16s-7.175781 16-16 16h-32v16h72c4.40625 0 8 3.59375 8 8s-3.59375 8-8 8h-184c-8.824219 0-16-7.175781-16-16zm216 80c5.160156 6.871094 8 15.398438 8 24v160c0 13.230469-10.769531 24-24 24h-192c-13.230469 0-24-10.769531-24-24v-160c0-8.601562 2.839844-17.128906 8-24l12-16h200zm-232-32v-16h240l.007812 16zm0 0"/><path d="m133.558594 378.441406c14.34375 14.351563 33.203125 21.527344 52.050781 21.527344s37.695313-7.175781 52.046875-21.527344l5.65625-5.65625-104.097656-104.097656-5.65625 5.65625c-28.703125 28.695312-28.703125 75.398438 0 104.097656zm-4.519532-42.441406h35.648438l-24.953125 24.953125c-5.664063-7.519531-9.199219-16.066406-10.695313-24.953125zm46.960938 46.953125c-8.886719-1.496094-17.433594-5.023437-24.953125-10.6875l24.953125-24.953125zm16 .664063v-39.511719l28.296875 28.292969c-8.441406 6.363281-18.25 10.097656-28.296875 11.21875zm-52.390625-91.914063 28.285156 28.296875h-39.511719c1.113282-10.046875 4.847657-19.855469 11.226563-28.296875zm0 0"/></svg>