<svg height="464pt" viewBox="0 0 464 464" width="464pt" xmlns="http://www.w3.org/2000/svg"><path d="m0 224h464l-232-224zm0 0" fill="#b1987a"/><path d="m232 24 207.144531 200h24.855469l-232-224-232 224h24.855469zm0 0" fill="#7c6a55"/><path d="m56 464h352v-240h-352zm0 0" fill="#e1e0e3"/><path d="m184 328h96v136h-96zm0 0" fill="#a0815c"/><path d="m208 352h72v-24h-96v136h24zm0 0" fill="#604d37"/><path d="m56 224h352v16h-352zm0 0" fill="#b4b3b6"/><g fill="#c7c7c7"><path d="m56 456h128v8h-128zm0 0"/><path d="m280 456h128v8h-128zm0 0"/></g></svg>