<svg height="511pt" viewBox="1 1 511.99962 511" width="511pt" xmlns="http://www.w3.org/2000/svg"><path d="m82.839844 355.398438 42.332031-42.335938-10.527344-74.34375-74.242187 74.242188c-43.941406 43.945312-43.941406 115.191406 0 159.132812 43.945312 43.945312 115.191406 43.945312 159.136718 0v-42.433594h-42.4375c-20.503906 20.507813-53.753906 20.507813-74.261718 0-20.507813-20.507812-20.507813-53.757812 0-74.261718zm0 0" fill="#8b9ea4"/><path d="m176.433594 176.933594 2.863281 2.863281 156.269531 39.570313v-42.433594c-43.945312-43.945313-115.191406-43.945313-159.132812 0zm0 0" fill="#728287"/><path d="m179.296875 179.796875 39.570313 39.570313c20.507812-20.503907 53.757812-20.503907 74.261718 0h42.4375s-21.21875-21.21875-21.21875-21.21875c-36.59375-36.59375-92.121094-42.707032-135.050781-18.351563zm0 0" fill="#8b9ea4"/><path d="m114.644531 238.71875c-3.125 25.0625.382813 50.800781 10.527344 74.34375l93.695313-93.695312-42.433594-42.433594zm0 0" fill="#728287"/><path d="m312.472656 40.894531c-.011718.007813-21.21875 21.214844-21.21875 21.214844 43.945313-43.933594 101.039063-29.785156 144.980469 14.15625 43.945313 43.945313 58.089844 101.046875 14.144531 144.988281l21.21875-21.21875c43.945313-43.941406 43.945313-115.1875 0-159.132812-43.941406-43.941406-115.179687-43.941406-159.125-.007813zm0 0" fill="#a3bbc0"/><path d="m450.378906 62.121094c-43.941406-43.941406-115.179687-43.945313-159.125-.007813l-114.820312 114.820313c-43.945313 43.941406-43.945313 115.1875 0 159.132812 43.941406 43.945313 115.1875 43.945313 159.132812 0l2.539063-87.410156-44.972657 44.976562c-20.507812 20.503907-53.757812 20.503907-74.265624 0-20.503907-20.507812-20.503907-53.757812 0-74.265624l136.03125-136.027344c20.507812-20.507813 53.757812-20.507813 74.261718 0 20.507813 20.503906 20.507813 53.753906 0 74.261718l-42.332031 42.335938 10.527344 74.34375 53.023437-53.027344c43.945313-43.941406 43.945313-115.191406 0-159.132812zm0 0" fill="#bddbe0"/><path d="m386.828125 199.933594-48.722656 48.722656c2.242187 23.660156-5.675781 48.113281-23.757813 66.191406l21.21875 21.21875 61.789063-61.789062c3.125-25.0625-.382813-50.800782-10.527344-74.34375zm0 0" fill="#a3bbc0"/><path d="m314.347656 198.148438.003906 159.132812 21.214844-21.214844c43.945313-43.945312 43.945313-115.191406 0-159.132812zm0 0" fill="#728287"/><path d="m314.347656 198.148438-21.214844 21.21875c20.503907 20.507812 20.503907 53.757812 0 74.261718l-136.03125 136.03125 42.433594 42.433594 114.816406-114.8125c43.941407-43.945312 43.941407-115.1875-.003906-159.132812zm0 0" fill="#8b9ea4"/><path d="m476.902344 35.597656c-46.800782-46.796875-122.945313-46.796875-169.746094 0l-136.019531 136.019532c-.007813.011718-136.039063 136.039062-136.039063 136.039062-46.796875 46.800781-46.796875 122.945312 0 169.746094 23.398438 23.398437 54.136719 35.097656 84.871094 35.097656 30.738281 0 61.472656-11.699219 84.875-35.097656l272.058594-272.058594c46.796875-46.800781 46.796875-122.945312 0-169.746094zm-282.667969 431.195313c-20.476563 20.476562-47.367187 30.710937-74.265625 30.707031-26.890625 0-53.789062-10.238281-74.261719-30.707031-40.945312-40.949219-40.945312-107.578125 0-148.527344l94.984375-94.980469c-11.621094 40.597656-1.480468 86.167969 30.4375 118.085938 10.910156 10.910156 23.890625 19.632812 38.019532 25.632812l-57.351563 57.351563c-8.5 8.5-19.804687 13.183593-31.828125 13.183593-12.019531 0-23.324219-4.683593-31.824219-13.183593-17.550781-17.550781-17.550781-46.105469 0-63.652344l42.332031-42.335937c2.929688-2.929688 2.929688-7.679688 0-10.609376-2.929687-2.929687-7.679687-2.929687-10.609374 0l-42.332032 42.335938c-11.335937 11.335938-17.578125 26.40625-17.578125 42.433594 0 16.03125 6.242188 31.101562 17.578125 42.4375 11.335938 11.335937 26.40625 17.578125 42.4375 17.578125s31.101563-6.242188 42.433594-17.578125l65.644531-65.644532c.011719-.011718 70.386719-70.386718 70.386719-70.386718 11.335938-11.335938 17.578125-26.402344 17.578125-42.433594s-6.242187-31.101562-17.578125-42.4375-26.40625-17.578125-42.4375-17.578125c-1.261719 0-2.515625.054687-3.765625.132813l39.046875-39.050782c14.566406 5.195313 27.96875 13.65625 38.980469 24.671875 40.949219 40.949219 40.949219 107.574219 0 148.523438zm29.941406-242.121094c8.515625-8.507813 19.8125-13.183594 31.824219-13.183594 12.023438 0 23.324219 4.683594 31.828125 13.183594 8.5 8.503906 13.183594 19.804687 13.183594 31.828125s-4.683594 23.324219-13.183594 31.824219c-8.519531 8.507812-19.8125 13.183593-31.828125 13.183593-12.023438 0-23.324219-4.679687-31.824219-13.183593-17.550781-17.546875-17.550781-46.101563 0-63.652344zm116.695313-53.042969c-10.917969-10.917968-23.894532-19.640625-38.011719-25.640625l57.34375-57.34375c17.546875-17.550781 46.101563-17.550781 63.652344 0 8.503906 8.5 13.183593 19.800781 13.183593 31.824219s-4.679687 23.324219-13.183593 31.828125l-57.355469 57.355469c-5.84375-13.828125-14.378906-26.773438-25.628906-38.023438zm125.421875 23.101563-94.984375 94.984375c6-20.949219 6.203125-43.222656.605468-64.257813l62.550782-62.550781c11.335937-11.335938 17.578125-26.40625 17.578125-42.4375s-6.242188-31.101562-17.578125-42.4375c-11.335938-11.332031-26.40625-17.574219-42.433594-17.574219-16.03125 0-31.101562 6.242188-42.4375 17.574219l-65.527344 65.53125c-.050781.046875-.101562.097656-.152344.148438l-70.351562 70.351562c-11.332031 11.335938-17.574219 26.40625-17.574219 42.4375s6.242188 31.101562 17.574219 42.433594c11.335938 11.335937 26.40625 17.578125 42.4375 17.578125 1.261719 0 2.519531-.050781 3.769531-.128907l-39.042969 39.042969c-14.574218-5.195312-27.980468-13.65625-38.988281-24.664062-40.949219-40.949219-40.949219-107.578125 0-148.523438l136.03125-136.03125c40.945313-40.949219 107.574219-40.949219 148.523438 0 40.945312 40.949219 40.945312 107.578125 0 148.523438zm0 0"/></svg>