<svg height="496pt" viewBox="0 0 496 496" width="496pt" xmlns="http://www.w3.org/2000/svg"><path d="m488 0h-480c-4.425781 0-8 3.574219-8 8v480c0 4.425781 3.574219 8 8 8h480c4.425781 0 8-3.574219 8-8v-480c0-4.425781-3.574219-8-8-8zm-8 16v80h-464v-80zm-464 464v-368h464v368zm0 0"/><path d="m56 80c13.230469 0 24-10.769531 24-24s-10.769531-24-24-24-24 10.769531-24 24 10.769531 24 24 24zm0-32c4.414062 0 8 3.585938 8 8s-3.585938 8-8 8-8-3.585938-8-8 3.585938-8 8-8zm0 0"/><path d="m120 80c13.230469 0 24-10.769531 24-24s-10.769531-24-24-24-24 10.769531-24 24 10.769531 24 24 24zm0-32c4.414062 0 8 3.585938 8 8s-3.585938 8-8 8-8-3.585938-8-8 3.585938-8 8-8zm0 0"/><path d="m184 80c13.230469 0 24-10.769531 24-24s-10.769531-24-24-24-24 10.769531-24 24 10.769531 24 24 24zm0-32c4.414062 0 8 3.585938 8 8s-3.585938 8-8 8-8-3.585938-8-8 3.585938-8 8-8zm0 0"/><path d="m416 368v-16h-80v-112h80v-16h-80v-96h-16v96h-144v-96h-16v96h-80v16h80v112h-80v16h80v96h16v-96h144v96h16v-96zm-240-16v-112h144v112zm0 0"/><path d="m104 384c-22.054688 0-40 17.945312-40 40s17.945312 40 40 40 40-17.945312 40-40-17.945312-40-40-40zm0 64c-13.230469 0-24-10.769531-24-24s10.769531-24 24-24 24 10.769531 24 24-10.769531 24-24 24zm0 0"/><path d="m248 256c-22.054688 0-40 17.945312-40 40s17.945312 40 40 40 40-17.945312 40-40-17.945312-40-40-40zm0 64c-13.230469 0-24-10.769531-24-24s10.769531-24 24-24 24 10.769531 24 24-10.769531 24-24 24zm0 0"/><path d="m248 208c22.054688 0 40-17.945312 40-40s-17.945312-40-40-40-40 17.945312-40 40 17.945312 40 40 40zm0-64c13.230469 0 24 10.769531 24 24s-10.769531 24-24 24-24-10.769531-24-24 10.769531-24 24-24zm0 0"/><path d="m410.34375 138.34375-26.34375 26.34375-26.34375-26.34375-11.3125 11.3125 26.34375 26.34375-26.34375 26.34375 11.3125 11.3125 26.34375-26.34375 26.34375 26.34375 11.3125-11.3125-26.34375-26.34375 26.34375-26.34375zm0 0"/><path d="m410.34375 258.34375-26.34375 26.34375-26.34375-26.34375-11.3125 11.3125 26.34375 26.34375-26.34375 26.34375 11.3125 11.3125 26.34375-26.34375 26.34375 26.34375 11.3125-11.3125-26.34375-26.34375 26.34375-26.34375zm0 0"/><path d="m410.34375 386.34375-26.34375 26.34375-26.34375-26.34375-11.3125 11.3125 26.34375 26.34375-26.34375 26.34375 11.3125 11.3125 26.34375-26.34375 26.34375 26.34375 11.3125-11.3125-26.34375-26.34375 26.34375-26.34375zm0 0"/></svg>